<svg xmlns="http://www.w3.org/2000/svg" viewBox="0 0 26 26"><defs><linearGradient id="g" x1="2" y1="4" x2="24" y2="22" gradientUnits="userSpaceOnUse"><stop stop-color="#ff6738"/><stop offset=".28" stop-color="#ff4bc1"/><stop offset=".52" stop-color="#795cff"/><stop offset=".76" stop-color="#25d5ff"/><stop offset="1" stop-color="#ffc53d"/></linearGradient></defs><path fill="url(#g)" d="M13 2.5c2.8 0 3 3.4 5.2 4.6 2.3 1.3 5.2-.6 6.2 1.7.9 2.2-2 3.8-2 6.3s2.8 4.3 1.3 6.2c-1.5 1.8-4-.4-6.5.7-2.4 1-2 4.4-4.8 3.9-2.7-.5-2.2-3.7-4.4-5C5.8 19.6 3 21.4 1.8 19c-1.2-2.4 1.8-3.8 1.8-6.4 0-2.5-2.8-4-.9-6.2 1.8-2.1 4.2.2 6.6-.9C11.7 4.5 10.4 2.5 13 2.5Z"/></svg>
